<svg width="30" height="32" viewBox="0 0 30 32" fill="none" xmlns="http://www.w3.org/2000/svg">
<g id="akar-icons:whatsapp-fill">
<rect width="29.5472" height="30.6316" transform="translate(0.2854 0.83252)" fill="#FEFEFE"/>
<path id="Vector" fill-rule="evenodd" clip-rule="evenodd" d="M21.7256 19.1885C21.3587 18.9984 19.56 18.082 19.2252 17.9543C18.8903 17.828 18.6465 17.7655 18.4015 18.1458C18.1578 18.5236 17.4573 19.3787 17.2443 19.6314C17.0301 19.8854 16.8171 19.916 16.4514 19.7272C16.0858 19.5357 14.9064 19.1362 13.509 17.8446C12.4219 16.8388 11.6869 15.597 11.4739 15.2167C11.261 14.8376 11.4506 14.6321 11.634 14.4432C11.799 14.2735 11.9996 14.0003 12.1831 13.7795C12.3665 13.5574 12.4268 13.3992 12.5487 13.1452C12.6718 12.8925 12.6103 12.6717 12.518 12.4815C12.4268 12.2913 11.6956 10.4241 11.3902 9.66468C11.0935 8.92569 10.7919 9.02652 10.5678 9.01376C10.3536 9.00355 10.1099 9.00099 9.86609 9.00099C9.62232 9.00099 9.2259 9.09544 8.89103 9.47578C8.55493 9.85485 7.61065 10.7725 7.61065 12.6398C7.61065 14.5057 8.92058 16.3092 9.10402 16.5632C9.28745 16.8159 11.6832 20.6474 15.3533 22.29C16.2274 22.6805 16.9082 22.9141 17.4388 23.0877C18.3154 23.3774 19.1131 23.3366 19.7435 23.2383C20.4452 23.1298 21.9078 22.3206 22.2131 21.4349C22.5172 20.5491 22.5172 19.7897 22.4261 19.6314C22.335 19.4732 22.0913 19.3787 21.7244 19.1885H21.7256ZM15.0504 28.6371H15.0455C12.8657 28.6375 10.7259 28.03 8.8504 26.8783L8.40719 26.6052L3.80029 27.8586L5.03019 23.2026L4.74088 22.7252C3.52222 20.7142 2.8773 18.3867 2.88063 16.0118C2.88309 9.05587 8.34194 3.39669 15.0553 3.39669C18.3055 3.39669 21.3612 4.7113 23.6585 7.09545C24.7916 8.2653 25.6897 9.65647 26.3008 11.1885C26.912 12.7205 27.224 14.3629 27.2189 16.0207C27.2165 22.9767 21.7576 28.6371 15.0504 28.6371ZM25.4067 5.28436C24.0502 3.86883 22.4363 2.74645 20.6583 1.98228C18.8804 1.2181 16.9738 0.827317 15.0492 0.832572C6.98031 0.832572 0.410976 7.64172 0.408514 16.0105C0.404775 18.6739 1.07871 21.2911 2.36232 23.5982L0.2854 31.4641L8.04647 29.3531C10.1934 30.5658 12.5993 31.2012 15.0442 31.2012H15.0504C23.1192 31.2012 29.6886 24.3921 29.691 16.022C29.697 14.0275 29.3214 12.0515 28.586 10.2084C27.8506 8.36534 26.77 6.69172 25.4067 5.28436Z" fill="#333333"/>
</g>
</svg>
